<svg width="33" height="34" viewBox="0 0 33 34" fill="none" xmlns="http://www.w3.org/2000/svg">
<path d="M10 25.625H23M14.9038 2.49153L3.88251 11.0636C3.14578 11.6366 2.77742 11.9231 2.51204 12.2819C2.27697 12.5998 2.10185 12.9578 1.99529 13.3385C1.875 13.7682 1.875 14.2349 1.875 15.1682V26.925C1.875 28.7452 1.875 29.6553 2.22923 30.3505C2.54082 30.962 3.038 31.4592 3.64953 31.7708C4.34474 32.125 5.25483 32.125 7.075 32.125H25.925C27.7452 32.125 28.6553 32.125 29.3505 31.7708C29.962 31.4592 30.4592 30.962 30.7708 30.3505C31.125 29.6553 31.125 28.7452 31.125 26.925V15.1682C31.125 14.2349 31.125 13.7682 31.0047 13.3385C30.8981 12.9578 30.723 12.5998 30.488 12.2819C30.2226 11.9231 29.8542 11.6366 29.1175 11.0636L18.0962 2.49153C17.5253 2.04749 17.2399 1.82547 16.9247 1.74013C16.6466 1.66483 16.3534 1.66483 16.0753 1.74013C15.7601 1.82547 15.4747 2.04749 14.9038 2.49153Z" stroke="#EBEBEB" stroke-width="2" stroke-linecap="round" stroke-linejoin="round"/>
</svg>
