<svg width="83" height="83" viewBox="0 0 83 83" fill="none" xmlns="http://www.w3.org/2000/svg">
<path d="M80 50.0556V59.4667C80 66.654 80 70.2477 78.6012 72.9929C77.3709 75.4076 75.4076 77.3709 72.9929 78.6012C70.2477 80 66.654 80 59.4667 80H50.0556M32.9444 3H23.5333C16.346 3 12.7523 3 10.0071 4.39875C7.59238 5.62912 5.62912 7.59238 4.39875 10.0071C3 12.7523 3 16.346 3 23.5333V32.9444M54.3333 28.6667L80 3M80 3H54.3333M80 3V28.6667M28.6667 54.3333L3 80M3 80H28.6667M3 80L3 54.3333" stroke="#EFEFEF" stroke-width="6" stroke-linecap="round" stroke-linejoin="round"/>
</svg>
