<svg width="28" height="28" viewBox="0 0 28 28" fill="none" xmlns="http://www.w3.org/2000/svg">
<path d="M18.8 18.8C18.8 18.8 17 16.4 14 16.4C11 16.4 9.2 18.8 9.2 18.8M20 10.688C19.526 11.27 18.878 11.6 18.2 11.6C17.522 11.6 16.892 11.27 16.4 10.688M11.6 10.688C11.126 11.27 10.478 11.6 9.8 11.6C9.122 11.6 8.492 11.27 8 10.688M26 14C26 20.6274 20.6274 26 14 26C7.37258 26 2 20.6274 2 14C2 7.37258 7.37258 2 14 2C20.6274 2 26 7.37258 26 14Z" stroke="#F5F5F5" stroke-width="3" stroke-linecap="round" stroke-linejoin="round"/>
</svg>
